HIERARCHY
ROOT Hips
{
    OFFSET 0.000000 0.000000 0.000000
    CHANNELS 6 Xposition Yposition Zposition Zrotation Xrotation Yrotation
    JOINT Spine
    {
        OFFSET -0.000000 7.236184 0.000000
        CHANNELS 3 Zrotation Xrotation Yrotation
        JOINT Spine1
        {
            OFFSET -0.000000 20.420147 0.000000
            CHANNELS 3 Zrotation Xrotation Yrotation
            JOINT Neck
            {
                OFFSET -0.000000 20.336288 1.848754
                CHANNELS 3 Zrotation Xrotation Yrotation
                JOINT Head
                {
                    OFFSET -0.000000 12.354461 -1.764923
                    CHANNELS 3 Zrotation Xrotation Yrotation
                    End Site
                    {
                        OFFSET -0.000000 22.061537 0.000000
                    }
                }
            }
            JOINT LeftShoulder
            {
                OFFSET 3.573296 18.396038 -0.314103
                CHANNELS 3 Zrotation Xrotation Yrotation
                JOINT LeftArm
                {
                    OFFSET 10.880760 0.000000 0.000000
                    CHANNELS 3 Zrotation Xrotation Yrotation
                    JOINT LeftForeArm
                    {
                        OFFSET 27.185530 0.000000 0.000000
                        CHANNELS 3 Zrotation Xrotation Yrotation
                        JOINT LeftHand
                        {
                            OFFSET 27.825975 0.000000 0.000000
                            CHANNELS 3 Zrotation Xrotation Yrotation
                            End Site
                            {
                                OFFSET 13.236923 0.000000 0.000000
                            }
                        }
                    }
                }
            }
            JOINT RightShoulder
            {
                OFFSET -3.474926 18.396038 -0.314103
                CHANNELS 3 Zrotation Xrotation Yrotation
                JOINT RightArm
                {
                    OFFSET -10.880760 0.000000 0.000000
                    CHANNELS 3 Zrotation Xrotation Yrotation
                    JOINT RightForeArm
                    {
                        OFFSET -27.185530 0.000000 0.000000
                        CHANNELS 3 Zrotation Xrotation Yrotation
                        JOINT RightHand
                        {
                            OFFSET -27.825975 0.000000 0.000000
                            CHANNELS 3 Zrotation Xrotation Yrotation
                            End Site
                            {
                                OFFSET -13.236923 0.000000 0.000000
                            }
                        }
                    }
                }
            }
        }
    }
    JOINT LeftUpLeg
    {
        OFFSET 8.824615 0.000000 0.000000
        CHANNELS 3 Zrotation Xrotation Yrotation
        JOINT LeftLeg
        {
            OFFSET -0.000000 -35.111282 0.000000
            CHANNELS 3 Zrotation Xrotation Yrotation
            JOINT LeftFoot
            {
                OFFSET -0.000000 -42.324711 0.000000
                CHANNELS 3 Zrotation Xrotation Yrotation
                JOINT LeftToeBase
                {
                    OFFSET -0.000000 -5.735999 13.236923
                    CHANNELS 3 Zrotation Xrotation Yrotation
                    End Site
                    {
                        OFFSET -0.000000 0.000000 3.529846
                    }
                }
            }
        }
    }
    JOINT RightUpLeg
    {
        OFFSET -8.824615 0.000000 0.000000
        CHANNELS 3 Zrotation Xrotation Yrotation
        JOINT RightLeg
        {
            OFFSET -0.000000 -35.111282 0.000000
            CHANNELS 3 Zrotation Xrotation Yrotation
            JOINT RightFoot
            {
                OFFSET -0.000000 -42.324711 0.000000
                CHANNELS 3 Zrotation Xrotation Yrotation
                JOINT RightToeBase
                {
                    OFFSET -0.000000 -5.735999 13.236923
                    CHANNELS 3 Zrotation Xrotation Yrotation
                    End Site
                    {
                        OFFSET -0.000000 0.000000 3.529846
                    }
                }
            }
        }
    }
}
MOTION
Frames:    11
Frame Time:    0.008333
-5.624265    79.725792    101.441956    -0.478304    -2.267979    -175.799149    0.198434    -8.604429    1.180531    -1.276929    7.732269    1.251951    1.316528    4.953569    -3.686895    7.677314    -7.518265    -2.387058    1.746832    18.384361    -0.199657    -51.359173    33.842518    -32.784344    2.753115    -9.422320    -7.895237    4.546537    -9.311472    -1.956563    7.358932    21.294973    -8.164176    39.589935    46.770565    34.948364    -4.242375    -14.733200    20.952980    -13.696238    -14.222152    2.139964    8.737988    -2.999948    0.908033    -2.263288    12.154684    -3.641581    -7.298363    -9.786931    -6.732238    -0.011981    -0.651270    0.013296    -8.959739    3.134160    -6.084591    3.638384    7.072130    -1.328049    3.289972    -7.719982    -14.450389    -2.118901    0.346252    2.290629    
-5.591647    79.715141    101.402435    -0.491593    -2.265305    -175.754379    0.194301    -8.582241    1.166713    -1.350135    7.657244    1.242548    1.275140    4.892619    -3.780042    7.923832    -7.521811    -2.429134    1.887954    17.980867    -0.272078    -51.115490    32.143528    -32.039642    2.004899    -9.458334    -7.320921    4.397851    -9.413622    -2.160165    7.433674    21.355820    -8.324892    40.110584    46.583435    34.272743    -3.835082    -14.539821    20.339653    -12.998426    -14.107046    2.119950    8.736771    -3.094388    1.050323    -2.200760    12.359182    -3.748148    -7.373428    -9.896508    -6.817456    0.015763    -0.667022    -0.017494    -8.989476    2.914310    -6.127755    3.670838    7.578424    -1.314662    3.270743    -7.942395    -14.463428    -2.117751    0.265452    2.289638    
-5.558161    79.704758    101.363182    -0.502875    -2.262556    -175.711624    0.186508    -8.559426    1.150871    -1.414391    7.583676    1.230667    1.235380    4.830529    -3.869510    8.162043    -7.530238    -2.468890    2.032388    17.580481    -0.342206    -50.843132    30.446035    -31.337198    1.321889    -9.486771    -6.729083    4.251572    -9.495674    -2.336507    7.504100    21.414896    -8.483932    40.614796    46.390297    33.600704    -3.445262    -14.343080    19.737230    -12.312921    -13.980469    2.090539    8.739205    -3.184264    1.181032    -2.141733    12.554835    -3.841352    -7.448706    -10.002252    -6.903012    0.042931    -0.682160    -0.047647    -9.016181    2.698866    -6.172440    3.702717    8.074774    -1.299884    3.251422    -8.158809    -14.475469    -2.116960    0.184955    2.289036    
-5.522119    79.694519    101.323105    -0.510516    -2.259319    -175.671844    0.172368    -8.534953    1.130897    -1.464439    7.511047    1.214153    1.197511    4.764005    -3.954611    8.392105    -7.548347    -2.505266    2.186671    17.174795    -0.409303    -50.530903    28.741091    -30.655502    0.718046    -9.527386    -6.146839    4.110264    -9.577907    -2.501711    7.568171    21.472727    -8.644095    41.108845    46.187195    32.912323    -3.068671    -14.127939    19.149784    -11.637324    -13.828053    2.047878    8.748718    -3.270335    1.312309    -2.084416    12.746050    -3.935246    -7.525288    -10.107744    -6.986778    0.069719    -0.696536    -0.077380    -9.037677    2.485195    -6.220475    3.734279    8.567851    -1.281763    3.231551    -8.370798    -14.485974    -2.116646    0.102519    2.288953    
-5.483685    79.684624    101.282669    -0.513388    -2.255481    -175.637543    0.150853    -8.508725    1.106129    -1.495896    7.440858    1.192211    1.162823    4.693322    -4.032160    8.608076    -7.579217    -2.536054    2.351148    16.771076    -0.470558    -50.180130    27.081671    -29.999714    0.223510    -9.595938    -5.618992    3.980935    -9.676343    -2.661812    7.621917    21.527569    -8.802171    41.580040    45.980083    32.216564    -2.714571    -13.892459    18.599276    -10.993301    -13.647086    1.994369    8.767095    -3.348591    1.440214    -2.031505    12.926168    -4.025683    -7.601614    -10.210238    -7.066308    0.095577    -0.709484    -0.106080    -9.052382    2.278478    -6.270900    3.765170    9.046024    -1.258979    3.211505    -8.572493    -14.494773    -2.116961    0.019488    2.289554    
-5.441079    79.674683    101.239944    -0.510733    -2.250370    -175.609787    0.120865    -8.479197    1.075204    -1.507992    7.370659    1.163403    1.131260    4.616817    -4.103668    8.816530    -7.629467    -2.560864    2.534503    16.353207    -0.527349    -49.771358    25.423599    -29.337517    -0.165746    -9.711914    -5.157056    3.865255    -9.813420    -2.830605    7.665226    21.581411    -8.963554    42.042233    45.764214    31.484266    -2.371781    -13.625796    18.073217    -10.364016    -13.429380    1.931867    8.796554    -3.418766    1.567609    -1.982380    13.098607    -4.111746    -7.681002    -10.312687    -7.144634    0.121438    -0.721522    -0.134787    -9.059825    2.072213    -6.324745    3.796438    9.525469    -1.229120    3.190827    -8.770059    -14.502165    -2.117842    -0.068261    2.290783    
-5.395715    79.664986    101.195976    -0.502367    -2.243674    -175.591812    0.084080    -8.447119    1.039453    -1.500675    7.302906    1.129013    1.104452    4.537988    -4.166160    9.011296    -7.700050    -2.577912    2.732484    15.934336    -0.577188    -49.313469    23.838627    -28.686279    -0.429229    -9.886955    -4.798784    3.773812    -10.002247    -3.006315    7.694997    21.632462    -9.122302    42.477482    45.550343    30.739120    -2.053272    -13.339911    17.593910    -9.775496    -13.186023    1.866729    8.836473    -3.475616    1.688507    -1.939630    13.254464    -4.185437    -7.760774    -10.410298    -7.219910    0.146624    -0.731875    -0.162744    -9.059568    1.874542    -6.378602    3.827126    9.988274    -1.192382    3.170530    -8.955828    -14.507748    -2.119383    -0.157809    2.292730    
-5.346883    79.655304    101.149704    -0.488379    -2.234974    -175.585464    0.040983    -8.411679    0.999030    -1.475801    7.235676    1.089342    1.082365    4.457297    -4.220875    9.198071    -7.793742    -2.586987    2.949990    15.505249    -0.620797    -48.794800    22.308315    -28.029757    -0.572396    -10.139179    -4.550344    3.711772    -10.263432    -3.193684    7.711286    21.682302    -9.280677    42.893513    45.336853    29.966354    -1.752612    -13.036189    17.153437    -9.219360    -12.920159    1.801225    8.886898    -3.518292    1.804395    -1.902288    13.395200    -4.243960    -7.843083    -10.503935    -7.294430    0.171864    -0.741054    -0.190762    -9.051867    1.682142    -6.431671    3.857410    10.442443    -1.148305    3.150975    -9.132864    -14.510668    -2.121634    -0.251073    2.295461    
-5.295184    79.645714    101.101395    -0.469371    -2.224733    -175.592850    -0.007021    -8.373562    0.955446    -1.435696    7.168539    1.045897    1.065082    4.377388    -4.267804    9.378000    -7.909596    -2.587830    3.185897    15.067732    -0.657952    -48.217941    20.853331    -27.371536    -0.598540    -10.479984    -4.418586    3.686038    -10.609869    -3.387241    7.713523    21.731113    -9.436553    43.288128    45.127163    29.171631    -1.471491    -12.726237    16.754236    -8.701859    -12.643913    1.738383    8.946210    -3.545867    1.914177    -1.870295    13.519003    -4.285687    -7.927408    -10.591942    -7.365876    0.197703    -0.749614    -0.219446    -9.037512    1.496413    -6.480874    3.887187    10.883275    -1.097304    3.132736    -9.299428    -14.511285    -2.124664    -0.347259    2.299044    
-5.239675    79.636002    101.049896    -0.445312    -2.213013    -175.616379    -0.059857    -8.332335    0.909043    -1.381571    7.098903    0.999158    1.052075    4.298268    -4.308400    9.557770    -8.047989    -2.580358    3.446130    14.609938    -0.689585    -47.570751    19.450010    -26.697195    -0.513327    -10.929350    -4.401532    3.703436    -11.062497    -3.584053    7.701106    21.780565    -9.592233    43.671528    44.916946    28.337416    -1.202412    -12.413379    16.386448    -8.214293    -12.362109    1.679303    9.014710    -3.558131    2.020514    -1.842618    13.628021    -4.311108    -8.015693    -10.674955    -7.433363    0.225356    -0.758508    -0.250143    -9.016951    1.313987    -6.523004    3.917994    11.317724    -1.038615    3.115376    -9.458224    -14.511143    -2.128670    -0.448312    2.303698    
-5.183426    79.626740    100.997971    -0.418099    -2.201453    -175.655960    -0.113862    -8.291069    0.863605    -1.318903    7.028709    0.952903    1.044191    4.225313    -4.341442    9.730410    -8.197592    -2.565685    3.717696    14.152972    -0.715068    -46.891220    18.166357    -26.041195    -0.334470    -11.466902    -4.489617    3.767057    -11.601040    -3.763051    7.675314    21.828779    -9.739414    44.027580    44.716209    27.506056    -0.956134    -12.122375    16.064051    -7.780273    -12.098783    1.628422    9.087503    -3.555878    2.119749    -1.819802    13.718002    -4.319587    -8.103744    -10.747911    -7.492759    0.253993    -0.768498    -0.281935    -8.992313    1.143106    -6.553447    3.948869    11.722809    -0.975924    3.099911    -9.600972    -14.510999    -2.133684    -0.548447    2.309445    
